<?xml version="1.0" encoding="utf-8"?>
<!DOCTYPE svg PUBLIC "-//W3C//DTD SVG 1.0//EN" "http://www.w3.org/TR/2001/REC-SVG-20010904/DTD/svg10.dtd">
<svg version="1.0" xmlns="http://www.w3.org/2000/svg" width="500px" height="500px" viewBox="0 0 500 500" preserveAspectRatio="xMidYMid meet">
 <g fill="#83d6e4">
  <path d="M434.3 438 c-8.7 -2.3 -13.3 -4.5 -13.3 -6.6 0 -1.6 4.7 -11.4 5.5 -11.4 0.2 0 3.8 1.1 7.9 2.5 11.3 3.8 18.8 3 24 -2.4 2.9 -3 4.6 -10.1 3.2 -13.7 -0.5 -1.4 -1.1 -1.2 -4 1.4 -8.6 7.5 -24.6 6.3 -32.7 -2.5 -5.9 -6.2 -7.4 -10.9 -7.4 -22.3 0 -9.5 0.3 -11 2.7 -15.6 5 -9.5 13.1 -13.9 24.2 -13.2 5 0.3 7.5 1.1 11.6 3.6 2.8 1.8 5.3 3.2 5.6 3.2 0.2 0 0.4 -1.6 0.4 -3.5 l0 -3.6 9.3 0.3 9.2 0.3 0.3 30.9 c0.3 35.2 -0.1 37.6 -6.8 44.5 -4.8 4.9 -8.1 6.7 -16.2 8.6 -8.3 1.9 -14.7 1.8 -23.5 -0.5z m19.2 -40.4 c12.5 -5.2 10 -27.5 -3.2 -29.3 -11.7 -1.6 -19.5 12.5 -13.1 23.8 3.5 6.2 9.6 8.3 16.3 5.5z"/>
  <path d="M46.5 416.7 c-8.1 -2.1 -14.6 -5.7 -20.1 -11.2 -22 -22 -13.1 -59.3 16.3 -68.5 9.4 -2.9 16.8 -3.4 25.2 -1.6 7.1 1.5 17.5 5.8 21.5 8.9 1.9 1.4 1.9 1.6 0.4 3.8 -0.9 1.3 -3.4 4.4 -5.6 6.9 -3.6 4 -4.3 4.3 -5.9 3.2 -8.3 -5.8 -18.8 -8.2 -26.3 -6.2 -5.9 1.6 -14.3 9.8 -15.9 15.5 -5.3 19.3 8.7 36.1 27.2 32.7 3.3 -0.6 7 -1.8 8.3 -2.7 2.3 -1.5 2.4 -2.1 2.4 -11.6 l0 -10 8.3 0.3 8.2 0.3 0.3 15.6 0.2 15.6 -4.7 2.5 c-11.5 6.2 -29.4 9.1 -39.8 6.5z"/>
  <path d="M231 416.5 c-25.2 -7.1 -37.7 -35.2 -26.3 -59.3 7.3 -15.6 27.5 -25.4 45.4 -22.2 7.2 1.2 18.5 6.3 23.3 10.4 l2.9 2.4 -5.8 6.6 c-3.2 3.6 -6 6.6 -6.3 6.6 -0.2 0 -2.2 -1.6 -4.4 -3.5 -13.3 -11.3 -31.6 -6.6 -37.4 9.7 -5.7 16.4 6.9 34.2 23.1 32.5 4.8 -0.5 12 -3.5 17.1 -7.2 2 -1.5 2.4 -1.3 7.3 4 2.8 3.1 5.1 6.3 5.1 7 0 1.9 -10.9 8.9 -17.8 11.5 -7.5 2.9 -18.9 3.5 -26.2 1.5z"/>
  <path d="M122.7 416 c-9.3 -2.4 -17.4 -8.9 -21 -16.9 -1.6 -3.5 -2.1 -6.7 -2.2 -13.6 0 -7.9 0.3 -9.7 2.8 -14.7 3.5 -7 9.3 -12.1 17.3 -14.9 4.7 -1.6 7.7 -2 15 -1.7 16.7 0.7 27.1 8.2 31 22.5 4.2 15.5 -3.1 31.2 -17.4 37.5 -5.4 2.3 -19.4 3.3 -25.5 1.8z m17.4 -16.3 c5.1 -3.4 7.1 -8 6.7 -15.3 -0.5 -7.7 -3.9 -12.7 -9.7 -14.5 -7.1 -2.1 -13.4 0.7 -17 7.8 -1.5 3 -1.4 12.9 0.3 16.1 1.6 3 5.3 6.6 7.6 7.5 3.5 1.3 8.9 0.6 12.1 -1.6z"/>
  <path d="M359.4 415.2 c-7.3 -3.4 -11 -10.6 -10.2 -19.4 0.7 -6.4 3.1 -9.6 9.8 -13 5 -2.6 6.2 -2.8 17.6 -2.8 6.8 0 12.5 -0.4 12.8 -0.8 1 -1.7 -1.1 -6.6 -3.6 -8.5 -3.6 -2.7 -11.1 -3.2 -17.8 -1.2 -9.4 2.8 -9.9 2.7 -12.1 -2.9 -1.1 -2.7 -1.8 -5.5 -1.5 -6.2 0.2 -0.6 3.5 -2.2 7.3 -3.5 5.7 -2 8.8 -2.4 19.3 -2.4 11 0 13 0.3 16.7 2.2 5 2.7 8.7 7.3 10.2 12.8 0.6 2.3 1.1 13 1.1 25.2 l0 21.1 -6.2 0.4 c-10.5 0.5 -12.5 0 -13.2 -3.3 l-0.5 -2.9 -5.2 3.3 c-4.5 2.8 -6.3 3.2 -12.8 3.5 -5.8 0.2 -8.6 -0.2 -11.7 -1.6z m24.6 -12.7 c5.6 -2.9 8.1 -11.7 3.8 -12.9 -6.1 -1.6 -17.4 0.2 -19.5 3 -2 2.7 -1.5 6.3 1.2 8.9 2.9 3 9.8 3.4 14.5 1z"/>
  <path d="M302 385.6 c0 -16.7 -0.3 -31.1 -0.6 -32 -0.5 -1.3 -2.6 -1.6 -12.5 -1.6 l-11.9 0 0 -8 0 -8 34.5 0 34.5 0 0 8 0 8 -12 0 -12 0 0 32 0 32 -10 0 -10 0 0 -30.4z"/>
  <path d="M231.5 310 c-3.3 -0.6 -9.1 -1.9 -13 -3.1 -3.8 -1.1 -8.6 -2.4 -10.7 -2.8 -7.1 -1.5 -14 -6.4 -20.1 -14.2 -3.2 -4.1 -6.7 -9.2 -7.8 -11.4 -6.4 -13.4 -7.9 -31 -5.6 -65.5 1.5 -23.4 1.5 -22.1 -0.3 -49.3 -1.2 -17.6 -0.9 -43.4 0.5 -48.3 0.5 -1.7 -0.1 -2.5 -2.9 -4.2 -5.1 -3 -7.6 -7.6 -7.6 -13.8 0 -5.8 2.3 -9.9 8.2 -14.7 3.2 -2.5 4.5 -3 10 -3 3.5 0 7.3 0.5 8.5 1.1 1.8 1 3 0.6 8.5 -2.6 16.4 -10 38 -14.1 63.1 -12.2 15.7 1.2 24.7 3.6 34 9 l6.9 4 4.9 -1.6 c6.6 -2.2 12.4 -1.2 17.3 2.8 4.2 3.5 7.5 9.7 7.6 14.2 0 4.6 -3.6 10.8 -8 13.9 -2.2 1.6 -3.8 3.2 -3.6 3.6 0.3 0.4 1.2 4.7 2.1 9.6 1.2 6.4 1.9 19.2 2.5 43.5 0.5 19 1.2 37.2 1.5 40.5 1.2 12.1 0.7 36.9 -0.9 46.5 -2.4 14.6 -7.3 27.1 -13.6 34.8 -1.6 1.9 -2.7 3.9 -2.5 4.2 0.8 1.3 -11.3 10 -13.8 10 -0.8 0 -4.1 1.2 -7.3 2.6 -9.6 4.2 -21.4 6.4 -37.4 6.9 -8 0.2 -17.2 0 -20.5 -0.5z m24.5 -159.6 c0.5 -0.5 1 -3.1 1.2 -5.8 0.3 -4.6 0.5 -5 3.4 -5.8 6.9 -1.8 6.8 -5.9 -0.1 -10.2 -2.5 -1.6 -4.5 -3.3 -4.5 -3.7 0 -1.9 -4.1 -4.9 -6.6 -4.9 -1.5 0 -3.8 1.2 -5.6 3 -1.6 1.7 -4.3 3.7 -5.9 4.6 -5.4 2.7 -5.9 9.3 -0.9 10.9 1.4 0.5 2 1.5 2 3.7 0 1.6 0.7 4.4 1.5 6.1 1.5 3.1 1.7 3.2 8 3.1 3.6 0 7 -0.5 7.5 -1z m-27.2 -31.1 c5.6 -3.2 10.2 -10.3 10.2 -15.7 0 -10.5 -10 -19.9 -21 -19.8 -11.6 0.2 -23.5 12.6 -21.6 22.6 0.8 4 5.5 10.8 9.2 13.2 1.4 1 4.7 2.3 7.2 2.9 5.4 1.4 9.5 0.6 16 -3.2z m57.7 -1.8 c5.1 -2.9 9.2 -7.8 10.5 -12.6 3.1 -10.8 -10 -25.1 -21.6 -23.5 -8.5 1.1 -16.7 7.2 -19.8 14.8 -2.1 5 -2 7.6 0.7 12.5 6.2 11.5 19.2 15.3 30.2 8.8z"/>
 </g>
 <g fill="#020304">
  <path d="M183.5 312.8 c-4 -3 -4.5 -3.8 -4.5 -7.2 0 -2.2 1.3 -4.2 5.3 -8.2 l5.2 -5.2 -3.8 -4.9 c-11.1 -14.1 -14.2 -31.9 -11.8 -67.2 0.7 -9.5 1 -17.5 0.8 -17.7 -0.1 -0.2 -2.2 0.6 -4.5 1.7 -5.5 2.7 -8.3 2 -10.4 -2.8 -1.7 -3.5 -1.6 -3.9 0 -6.7 1.8 -3 7 -5.7 13.5 -7.1 2.5 -0.5 2.8 -0.9 2.3 -3.3 -2.4 -11.9 -3.1 -61.8 -1.1 -68.8 0.5 -1.7 -0.1 -2.5 -2.9 -4.2 -5.1 -3 -7.6 -7.6 -7.6 -13.8 0 -5.8 2.3 -9.9 8.2 -14.7 3.2 -2.5 4.5 -3 10 -3 3.5 0 7.3 0.5 8.5 1.1 1.8 1 3 0.6 8.5 -2.6 16.4 -10 38 -14.1 63.1 -12.2 15.7 1.2 24.7 3.6 34 9 l6.9 4 4.9 -1.6 c6.6 -2.2 12.4 -1.2 17.3 2.8 4.2 3.5 7.5 9.7 7.6 14.2 0 4.6 -3.6 10.8 -8 13.9 -2.2 1.6 -3.8 3.2 -3.6 3.6 0.3 0.4 1.2 4.9 2.2 10.1 1.2 6.8 1.9 17.5 2.3 36.9 l0.6 27.4 4.8 1.2 c5.4 1.4 10.7 5.8 10.6 8.9 -0.1 3.3 -3.4 8.1 -5.7 8.4 -1.2 0.2 -3.6 -0.3 -5.2 -1.1 -1.6 -0.9 -3.2 -1.2 -3.4 -0.9 -0.2 0.4 0 6.3 0.4 13.2 0.8 12.6 -0.1 29.8 -2 40 -2.2 11.5 -7.5 24.1 -12.9 30.7 l-3 3.6 4.5 5 c4.1 4.6 4.5 5.4 4.2 9.6 -0.3 3.9 -0.7 4.8 -3.6 6.4 -4.5 2.6 -6.9 1.7 -13.4 -4.9 l-5.6 -5.7 -7.3 3.1 c-12.5 5.1 -22.2 6.7 -41.4 6.6 -15.4 -0.1 -17.9 -0.3 -26.5 -2.8 -15.7 -4.5 -15.6 -4.5 -23 1.2 -8.2 6.4 -10.7 7 -14.5 4z m93.8 -8.1 c37 -9.7 50.3 -35 47.5 -90.2 -0.4 -7.7 -1.2 -29.7 -1.7 -49 -1 -36.7 -2 -45.8 -6.6 -60.1 -7.4 -23.3 -25.9 -35.2 -58 -37 -18.2 -1.1 -38.3 2.5 -52.4 9.3 -13.6 6.5 -22.9 18.3 -27.6 34.9 -2.5 8.9 -3 33.8 -1.1 58.9 1.5 19.3 1.5 22.8 0 41 -1.8 23.2 -1.4 44.9 1.1 54 2.4 8.6 7 16.7 12.9 22.6 8.4 8.4 18.6 13.4 34.7 16.9 13.6 2.9 37.3 2.3 51.2 -1.3z m-100.5 -198.3 c0.9 -3.2 0.8 -4 -1 -6.4 -1.8 -2.5 -1.9 -3.1 -0.6 -5.6 1.1 -2.4 2 -2.9 5.1 -3 3 0 4.3 -0.7 6.7 -3.5 1.6 -1.9 2.9 -3.7 3 -4.1 0 -1.4 -8.9 -2 -12.4 -0.8 -2 0.6 -5.1 2.9 -7 5.1 -5.6 6.6 -5.6 12.8 0.1 18.5 1.8 1.9 3.7 3.4 4.2 3.4 0.4 0 1.3 -1.6 1.9 -3.6z m150.1 -3.7 c5.3 -5.7 2.9 -16.2 -4.8 -21.4 -4.6 -3.1 -15.1 -3 -15.1 0.1 0 1.8 4.1 5.2 7.2 6 3 0.7 4.1 3 4.3 9.6 0.1 2.5 0.7 5.8 1.3 7.3 1.3 3.2 2.9 2.8 7.1 -1.6z"/>
  <path d="M240.8 155.3 c-2.1 -0.5 -4.8 -6.2 -4.8 -10 0 -2.2 -0.7 -3.3 -2.5 -4.1 -5.3 -2.4 -4.7 -12.9 1 -16.3 1.6 -1 4.4 -3.2 6.2 -4.8 1.7 -1.6 4.7 -3.3 6.5 -3.6 4.3 -0.8 10.4 1.5 11.2 4.3 0.4 1.1 2.6 3.2 5.1 4.7 9.1 5.8 8.2 13.9 -1.7 16.9 -1.4 0.4 -1.8 1.6 -1.8 5.5 0 4.3 -0.4 5.3 -2.5 6.7 -2.2 1.5 -3.1 1.5 -6.4 0.4 -2.8 -0.9 -4.3 -0.9 -5.9 -0.1 -1.1 0.6 -2.2 1 -2.4 1 -0.2 -0.1 -1 -0.3 -2 -0.6z m19.9 -22.1 c-1.4 -1.5 -3.1 -1.7 -11.8 -1.5 -5.7 0.1 -10.7 0.7 -11.2 1.2 -0.6 0.6 2.5 0.8 8.4 0.4 5.5 -0.3 10.4 -0.1 11.9 0.5 3.7 1.6 4.5 1.4 2.7 -0.6z"/>
  <path d="M209.7 125.6 c-9.7 -2.6 -15.8 -9.9 -16.5 -19.6 -0.6 -7.9 1.6 -13.7 7.2 -18.8 5.2 -4.8 10.2 -6.6 18.1 -6.6 14.4 -0.1 23.9 9 23.9 22.9 0 10.7 -6.5 18.6 -18 22.1 -5.7 1.7 -8.3 1.7 -14.7 0z m14.8 -7.5 c5.1 -2.3 10.2 -8.1 11 -12.4 0.7 -3.8 -1.4 -9.9 -4.7 -13.4 -3 -3.2 -10.1 -5.7 -14.4 -5 -1.9 0.3 -5.7 1.8 -8.2 3.4 l-4.7 2.8 4.2 0.5 c6.6 0.9 8.3 3.1 8.3 10.5 0 7.3 -2.2 10.5 -7.2 10.5 -3.5 0 -3.1 1 1.7 3.4 4 2.1 9.1 2 14 -0.3z"/>
  <path d="M265.2 122.5 c-18.7 -8.4 -19 -32.3 -0.7 -41.7 2.5 -1.3 6.7 -2.3 11.2 -2.6 6 -0.4 7.9 -0.1 11.7 1.8 12.8 6.1 17.5 22.9 9.6 33.9 -4.7 6.5 -10.8 9.4 -20.4 9.8 -5.7 0.2 -9.1 -0.1 -11.4 -1.2z m18.9 -7.6 c4.8 -2.4 8.7 -7.1 9.5 -11.4 1.6 -8.7 -7.4 -18.8 -16.7 -18.7 -4 0.1 -10.7 3 -12.8 5.6 -1.2 1.4 -0.9 1.6 1.8 1.6 5.1 0 8.1 3.8 8.1 10 0 7.8 -2.1 10.9 -7.5 11 -2.8 0.1 -2.8 0.2 -1 1.2 6.6 3.9 11.8 4.1 18.6 0.7z"/>
 </g>
 <g fill="#ffffff">
  <path d="M241.1 150.6 c-0.7 -0.8 -1.4 -3 -1.8 -4.9 -0.5 -3.2 -0.3 -3.5 2.7 -4.6 4.7 -1.6 4.8 -1.6 4.2 4.2 -0.6 6.3 -2.6 8.4 -5.1 5.3z"/>
  <path d="M251.2 150.8 c-1.3 -1.3 -1.5 -7.1 -0.4 -10 0.6 -1.5 1.1 -1.6 3.2 -0.5 2.2 1.1 2.5 1.9 2.5 6.2 0 4.2 -0.3 5 -2 5.3 -1.1 0.1 -2.6 -0.3 -3.3 -1z"/>
  <path d="M207.5 121.4 c-10.9 -5.6 -14.6 -18.6 -8.1 -28.5 6.5 -9.7 25.1 -12 34 -4.1 4.7 4.2 7 15.3 4.5 21.9 -1.5 4 -5.7 8.2 -10.4 10.4 -5.1 2.3 -15.8 2.5 -20 0.3z m3.5 -11.6 c4.6 -5 -0.1 -14 -6.5 -12.4 -3 0.8 -5.9 6.3 -4.8 9.3 1.9 5.5 7.6 7 11.3 3.1z"/>
  <path d="M208.2 106.4 c0.4 -2.1 2.2 -2.3 2.6 -0.1 0.2 1 -0.3 1.7 -1.3 1.7 -1 0 -1.5 -0.6 -1.3 -1.6z"/>
  <path d="M269 120.1 c-8.3 -2.7 -13.7 -8.5 -14.7 -15.9 -2.4 -17.8 22.5 -30.1 36.3 -18 4.3 3.8 6.4 8.6 6.4 14.9 0 8.3 -3 13.3 -10.2 17 -4.2 2.2 -14 3.3 -17.8 2z m-0.6 -11.6 c5.3 -5.4 1.1 -14.7 -5.9 -12.9 -3.1 0.8 -5.9 6.1 -4.8 9.1 1.8 5 7.4 7 10.7 3.8z"/>
  <path d="M266 104.5 c0 -0.8 0.7 -1.5 1.5 -1.5 0.8 0 1.5 0.7 1.5 1.5 0 0.8 -0.7 1.5 -1.5 1.5 -0.8 0 -1.5 -0.7 -1.5 -1.5z"/>
 </g>
 <g fill="#f8dbb0">
  <path d="M185.7 311.4 c-0.3 -0.4 0.3 -2.4 1.3 -4.5 2.6 -4.9 0.7 -6.5 -2.7 -2.3 -1.6 2 -2.3 2.4 -2.3 1.3 0 -2.1 3.3 -6.2 7 -8.9 l2.9 -2 4.8 3.2 c2.6 1.7 5 3.3 5.3 3.5 0.3 0.3 -0.2 0.9 -1.1 1.3 -0.9 0.5 -3.8 2.7 -6.5 5 -4.6 3.8 -7.3 4.8 -8.7 3.4z"/>
  <path d="M304.7 305.2 c-2.6 -2.6 -4.7 -5.1 -4.7 -5.4 0 -0.3 1.9 -2 4.2 -3.7 l4.2 -3.1 2.9 2.8 c3.1 2.9 5.7 7.3 5.7 9.4 0 0.7 -1 0.1 -2.1 -1.4 -1.1 -1.6 -2.7 -2.8 -3.5 -2.8 -1.6 0 -1.9 2.1 -0.5 3.6 0.5 0.5 1.2 1.9 1.6 3.2 1.1 3.9 -2.7 2.6 -7.8 -2.6z"/>
  <path d="M164 202.2 c0 -0.4 0.5 -1.3 1.1 -1.9 1.6 -1.6 0.1 -3.5 -2.2 -2.8 -1.4 0.5 -1.7 0.2 -1.3 -0.9 0.8 -2.2 4.7 -4.4 9.3 -5.5 l4.1 -0.9 0 4.2 c0 4 -0.2 4.4 -4.4 6.4 -4.5 2.3 -6.6 2.7 -6.6 1.4z"/>
  <path d="M329.8 199.9 c-2.2 -1.6 -2.8 -2.9 -2.8 -6 0 -3.4 0.3 -3.9 2.4 -3.9 2.5 0 8.7 3.8 9.3 5.7 0.3 0.7 -0.3 0.9 -1.6 0.6 -1.5 -0.4 -2.1 -0.1 -2.1 1 0 0.9 0.5 1.9 1 2.2 1.8 1.1 1.1 2.5 -1.2 2.5 -1.3 0 -3.5 -1 -5 -2.1z"/>
  <path d="M256.5 137.5 c-3.8 -1.8 -7.3 -1.8 -14.6 -0.3 -4.6 0.9 -6.1 0.9 -7.3 -0.1 -2.3 -1.9 -2 -4.5 0.8 -7.8 2.3 -2.6 2.6 -2.7 5.8 -1.5 4.5 1.6 9.1 1.5 13.2 -0.2 3.5 -1.5 5.3 -1 9.4 2.7 2.7 2.5 2.9 6.3 0.3 7.7 -2.5 1.3 -3.9 1.2 -7.6 -0.5z"/>
 </g>
</svg>